<?xml version="1.0" standalone="no"?>
<!DOCTYPE svg PUBLIC "-//W3C//DTD SVG 20010904//EN"
 "http://www.w3.org/TR/2001/REC-SVG-20010904/DTD/svg10.dtd">
<svg version="1.0" xmlns="http://www.w3.org/2000/svg"
 width="2000.000000pt" height="2000.000000pt" viewBox="0 0 2000.000000 2000.000000"
 preserveAspectRatio="xMidYMid meet">
<metadata>
Created by potrace 1.16, written by Peter Selinger 2001-2019
</metadata>
<g transform="translate(0.000000,2000.000000) scale(0.100000,-0.100000)"
fill="#000000" stroke="none">
<path d="M1010 16820 l0 -2170 2170 0 2170 0 0 2170 0 2170 -2170 0 -2170 0 0
-2170z m3720 0 l0 -1550 -1550 0 -1550 0 0 1550 0 1550 1550 0 1550 0 0 -1550z"/>
<path d="M2250 16820 l0 -930 930 0 930 0 0 930 0 930 -930 0 -930 0 0 -930z"/>
<path d="M7210 18370 l0 -620 310 0 310 0 0 -310 0 -310 620 0 620 0 0 -620 0
-620 -620 0 -620 0 0 310 0 310 -310 0 -310 0 0 310 0 310 -620 0 -620 0 0
-1240 0 -1240 310 0 310 0 0 930 0 930 310 0 310 0 0 -930 0 -930 310 0 310 0
0 310 0 310 310 0 310 0 0 -620 0 -620 310 0 310 0 0 620 0 620 310 0 310 0 0
-930 0 -930 930 0 930 0 0 -620 0 -620 -620 0 -620 0 0 310 0 310 -310 0 -310
0 0 -620 0 -620 -620 0 -620 0 0 620 0 620 -310 0 -310 0 0 -620 0 -620 310 0
310 0 0 -310 0 -310 -310 0 -310 0 0 -310 0 -310 -620 0 -620 0 0 310 0 310
310 0 310 0 0 310 0 310 -310 0 -310 0 0 -310 0 -310 -310 0 -310 0 0 -310 0
-310 -930 0 -930 0 0 -310 0 -310 -310 0 -310 0 0 620 0 620 310 0 310 0 0
310 0 310 -310 0 -310 0 0 930 0 930 310 0 310 0 0 -310 0 -310 310 0 310 0 0
-310 0 -310 310 0 310 0 0 -310 0 -310 -310 0 -310 0 0 -310 0 -310 310 0 310
0 0 310 0 310 310 0 310 0 0 620 0 620 310 0 310 0 0 -310 0 -310 310 0 310 0
0 620 0 620 310 0 310 0 0 310 0 310 -1550 0 -1550 0 0 -310 0 -310 -310 0
-310 0 0 310 0 310 -620 0 -620 0 0 -310 0 -310 -310 0 -310 0 0 310 0 310
-310 0 -310 0 0 -310 0 -310 -310 0 -310 0 0 -310 0 -310 310 0 310 0 0 -620
0 -620 310 0 310 0 0 310 0 310 310 0 310 0 0 -310 0 -310 310 0 310 0 0 -310
0 -310 -310 0 -310 0 0 -310 0 -310 -310 0 -310 0 0 310 0 310 -620 0 -620 0
0 -620 0 -620 620 0 620 0 0 -620 0 -620 -620 0 -620 0 0 -310 0 -310 620 0
620 0 0 310 0 310 310 0 310 0 0 -620 0 -620 -930 0 -930 0 0 -310 0 -310 310
0 310 0 0 -310 0 -310 620 0 620 0 0 620 0 620 310 0 310 0 0 -310 0 -310 310
0 310 0 0 -310 0 -310 620 0 620 0 0 310 0 310 -620 0 -620 0 0 620 0 620 310
0 310 0 0 -310 0 -310 310 0 310 0 0 310 0 310 -310 0 -310 0 0 310 0 310 310
0 310 0 0 310 0 310 -310 0 -310 0 0 310 0 310 620 0 620 0 0 -620 0 -620 310
0 310 0 0 -310 0 -310 310 0 310 0 0 310 0 310 310 0 310 0 0 -930 0 -930
-310 0 -310 0 0 -310 0 -310 -620 0 -620 0 0 -620 0 -620 310 0 310 0 0 -310
0 -310 -310 0 -310 0 0 -620 0 -620 310 0 310 0 0 -310 0 -310 -310 0 -310 0
0 -310 0 -310 620 0 620 0 0 620 0 620 930 0 930 0 0 -310 0 -310 -310 0 -310
0 0 -310 0 -310 -310 0 -310 0 0 -310 0 -310 310 0 310 0 0 310 0 310 310 0
310 0 0 -310 0 -310 620 0 620 0 0 310 0 310 -620 0 -620 0 0 310 0 310 310 0
310 0 0 310 0 310 310 0 310 0 0 -310 0 -310 310 0 310 0 0 310 0 310 310 0
310 0 0 -310 0 -310 310 0 310 0 0 930 0 930 -930 0 -930 0 0 1240 0 1240 310
0 310 0 0 -310 0 -310 930 0 930 0 0 -930 0 -930 310 0 310 0 0 -620 0 -620
-310 0 -310 0 0 -620 0 -620 -310 0 -310 0 0 -310 0 -310 620 0 620 0 0 620 0
620 620 0 620 0 0 -310 0 -310 310 0 310 0 0 -310 0 -310 310 0 310 0 0 310 0
310 620 0 620 0 0 -310 0 -310 620 0 620 0 0 310 0 310 -310 0 -310 0 0 310 0
310 310 0 310 0 0 310 0 310 -310 0 -310 0 0 -310 0 -310 -1240 0 -1240 0 0
310 0 310 310 0 310 0 0 310 0 310 310 0 310 0 0 310 0 310 310 0 310 0 0
-310 0 -310 930 0 930 0 0 620 0 620 -310 0 -310 0 0 -310 0 -310 -310 0 -310
0 0 310 0 310 -620 0 -620 0 0 1240 0 1240 930 0 930 0 0 -930 0 -930 310 0
310 0 0 930 0 930 -310 0 -310 0 0 310 0 310 -310 0 -310 0 0 620 0 620 620 0
620 0 0 310 0 310 -310 0 -310 0 0 1240 0 1240 310 0 310 0 0 310 0 310 -310
0 -310 0 0 -310 0 -310 -310 0 -310 0 0 310 0 310 -310 0 -310 0 0 620 0 620
-930 0 -930 0 0 -620 0 -620 930 0 930 0 0 -310 0 -310 -620 0 -620 0 0 -310
0 -310 -1240 0 -1240 0 0 -310 0 -310 -310 0 -310 0 0 -310 0 -310 -310 0
-310 0 0 -310 0 -310 310 0 310 0 0 -310 0 -310 -310 0 -310 0 0 -310 0 -310
-310 0 -310 0 0 -310 0 -310 310 0 310 0 0 -620 0 -620 -620 0 -620 0 0 310 0
310 -310 0 -310 0 0 310 0 310 -310 0 -310 0 0 -1240 0 -1240 -310 0 -310 0 0
310 0 310 -310 0 -310 0 0 1240 0 1240 310 0 310 0 0 310 0 310 -310 0 -310 0
0 -310 0 -310 -310 0 -310 0 0 310 0 310 -310 0 -310 0 0 310 0 310 620 0 620
0 0 620 0 620 310 0 310 0 0 -620 0 -620 310 0 310 0 0 -310 0 -310 310 0 310
0 0 310 0 310 310 0 310 0 0 -310 0 -310 310 0 310 0 0 310 0 310 -310 0 -310
0 0 310 0 310 -620 0 -620 0 0 310 0 310 620 0 620 0 0 310 0 310 620 0 620 0
0 620 0 620 310 0 310 0 0 620 0 620 620 0 620 0 0 -310 0 -310 310 0 310 0 0
310 0 310 -310 0 -310 0 0 620 0 620 -310 0 -310 0 0 310 0 310 -310 0 -310 0
0 310 0 310 310 0 310 0 0 310 0 310 310 0 310 0 0 930 0 930 -1240 0 -1240 0
0 -310 0 -310 -310 0 -310 0 0 310 0 310 -310 0 -310 0 0 -310 0 -310 310 0
310 0 0 -310 0 -310 -310 0 -310 0 0 -310 0 -310 -310 0 -310 0 0 310 0 310
-930 0 -930 0 0 310 0 310 930 0 930 0 0 310 0 310 -1240 0 -1240 0 0 -620z
m4960 -930 l0 -310 310 0 310 0 0 310 0 310 310 0 310 0 0 -310 0 -310 -310 0
-310 0 0 -310 0 -310 -620 0 -620 0 0 -310 0 -310 620 0 620 0 0 -310 0 -310
310 0 310 0 0 -310 0 -310 -310 0 -310 0 0 -310 0 -310 -310 0 -310 0 0 310 0
310 -310 0 -310 0 0 -310 0 -310 -620 0 -620 0 0 620 0 620 -310 0 -310 0 0
620 0 620 310 0 310 0 0 -620 0 -620 310 0 310 0 0 -310 0 -310 310 0 310 0 0
620 0 620 -310 0 -310 0 0 310 0 310 310 0 310 0 0 620 0 620 310 0 310 0 0
-310z m-9920 -4340 l0 -310 -310 0 -310 0 0 310 0 310 310 0 310 0 0 -310z
m3100 0 l0 -310 -310 0 -310 0 0 310 0 310 310 0 310 0 0 -310z m11160 -1860
l0 -310 310 0 310 0 0 310 0 310 310 0 310 0 0 -310 0 -310 -310 0 -310 0 0
-310 0 -310 310 0 310 0 0 -310 0 -310 -310 0 -310 0 0 -930 0 -930 -310 0
-310 0 0 -310 0 -310 -310 0 -310 0 0 620 0 620 -620 0 -620 0 0 -620 0 -620
-620 0 -620 0 0 -620 0 -620 -310 0 -310 0 0 1240 0 1240 310 0 310 0 0 620 0
620 310 0 310 0 0 310 0 310 310 0 310 0 0 310 0 310 310 0 310 0 0 -310 0
-310 -310 0 -310 0 0 -310 0 -310 -310 0 -310 0 0 -310 0 -310 930 0 930 0 0
-310 0 -310 310 0 310 0 0 620 0 620 -310 0 -310 0 0 930 0 930 310 0 310 0 0
-310z m-9920 -1240 l0 -310 -310 0 -310 0 0 310 0 310 310 0 310 0 0 -310z
m-3100 -930 l0 -620 -310 0 -310 0 0 620 0 620 310 0 310 0 0 -620z m1240
-310 l0 -310 -310 0 -310 0 0 310 0 310 310 0 310 0 0 -310z m3720 -3410 l0
-620 620 0 620 0 0 -310 0 -310 310 0 310 0 0 -310 0 -310 -310 0 -310 0 0
-310 0 -310 -310 0 -310 0 0 310 0 310 -310 0 -310 0 0 620 0 620 -310 0 -310
0 0 -310 0 -310 -310 0 -310 0 0 310 0 310 -310 0 -310 0 0 310 0 310 310 0
310 0 0 -310 0 -310 310 0 310 0 0 620 0 620 310 0 310 0 0 -620z m7440 -310
l0 -930 -930 0 -930 0 0 930 0 930 930 0 930 0 0 -930z m-8680 -1860 l0 -310
-310 0 -310 0 0 310 0 310 310 0 310 0 0 -310z m8060 0 l0 -310 -310 0 -310 0
0 310 0 310 310 0 310 0 0 -310z"/>
<path d="M12170 14960 l0 -310 310 0 310 0 0 310 0 310 -310 0 -310 0 0 -310z"/>
<path d="M13410 8140 l0 -310 310 0 310 0 0 310 0 310 -310 0 -310 0 0 -310z"/>
<path d="M9070 3800 l0 -310 310 0 310 0 0 310 0 310 -310 0 -310 0 0 -310z"/>
<path d="M14650 5040 l0 -310 310 0 310 0 0 310 0 310 -310 0 -310 0 0 -310z"/>
<path d="M14650 16820 l0 -2170 2170 0 2170 0 0 2170 0 2170 -2170 0 -2170 0
0 -2170z m3720 0 l0 -1550 -1550 0 -1550 0 0 1550 0 1550 1550 0 1550 0 0
-1550z"/>
<path d="M15890 16820 l0 -930 930 0 930 0 0 930 0 930 -930 0 -930 0 0 -930z"/>
<path d="M5970 18060 l0 -310 310 0 310 0 0 310 0 310 -310 0 -310 0 0 -310z"/>
<path d="M17750 13720 l0 -310 310 0 310 0 0 310 0 310 -310 0 -310 0 0 -310z"/>
<path d="M14030 12480 l0 -310 310 0 310 0 0 310 0 310 -310 0 -310 0 0 -310z"/>
<path d="M5970 6900 l0 -310 310 0 310 0 0 310 0 310 -310 0 -310 0 0 -310z"/>
<path d="M17130 5970 l0 -620 310 0 310 0 0 620 0 620 -310 0 -310 0 0 -620z"/>
<path d="M1010 3180 l0 -2170 2170 0 2170 0 0 2170 0 2170 -2170 0 -2170 0 0
-2170z m3720 0 l0 -1550 -1550 0 -1550 0 0 1550 0 1550 1550 0 1550 0 0 -1550z"/>
<path d="M2250 3180 l0 -930 930 0 930 0 0 930 0 930 -930 0 -930 0 0 -930z"/>
<path d="M11550 5040 l0 -310 310 0 310 0 0 310 0 310 -310 0 -310 0 0 -310z"/>
<path d="M10930 1320 l0 -310 310 0 310 0 0 310 0 310 -310 0 -310 0 0 -310z"/>
</g>
</svg>
