<svg width="50" height="50" viewBox="0 0 50 50" fill="none" xmlns="http://www.w3.org/2000/svg">
<g clip-path="url(#clip0_16_70)">
<path d="M2.08325 25C2.08325 8.33333 8.33325 2.08333 24.9999 2.08333C41.6666 2.08333 47.9166 8.33333 47.9166 25C47.9166 41.6667 41.6666 47.9167 24.9999 47.9167C8.33325 47.9167 2.08325 41.6667 2.08325 25Z" fill="white"/>
<path d="M22.5833 15.9375C24.1285 15.5467 25.7406 15.4989 27.3062 15.7977C28.8719 16.0964 30.3531 16.7343 31.6458 17.6667C33 16.4167 34.2708 15.0833 35.5208 13.75C32.4707 11.1396 28.5288 9.81065 24.5208 10.0417C21.8439 10.1415 19.241 10.9476 16.9761 12.3782C14.7113 13.8089 12.8652 15.813 11.625 18.1875L16.3125 21.9792C16.8019 20.546 17.6261 19.2502 18.7167 18.1994C19.8074 17.1487 21.1329 16.3732 22.5833 15.9375Z" fill="#EA4335"/>
<path d="M16.3333 28.0417C15.6145 26.0848 15.6145 23.9361 16.3333 21.9792L11.625 18.1875C10.5017 20.279 9.94168 22.6267 9.99998 25C9.96672 27.3849 10.5479 29.7381 11.6875 31.8333L16.375 28.1458C16.368 28.1087 16.3538 28.0734 16.3333 28.0417Z" fill="#FAB908"/>
<path d="M16.375 28.1667L11.6875 31.8542C13.5044 35.3313 16.6063 37.9623 20.3333 39.1875C22.829 40.0343 25.4976 40.2396 28.0934 39.7846C30.6892 39.3295 33.1288 38.2286 35.1875 36.5833L30.7708 32.8958C30.2585 33.258 29.6974 33.5456 29.1042 33.75C27.9038 34.2388 26.6175 34.4818 25.3215 34.4646C24.0255 34.4473 22.7461 34.1702 21.5592 33.6495C20.3722 33.1289 19.3018 32.3754 18.4113 31.4336C17.5208 30.4918 16.8284 29.3809 16.375 28.1667Z" fill="#34A853"/>
<path d="M36.8334 34.8958C39.3671 31.4491 40.4785 27.1601 39.9376 22.9167C35.0348 22.9167 30.1737 22.9167 25.3542 22.9167V28.0208C28.2917 28.0208 31.2084 28.0208 34.1251 28.125C33.5894 30.0486 32.432 31.7408 30.8334 32.9375L35.2501 36.625C35.8355 36.1042 36.366 35.5248 36.8334 34.8958Z" fill="#0066D9"/>
</g>
<defs>
<clipPath id="clip0_16_70">
<rect width="50" height="50" fill="white"/>
</clipPath>
</defs>
</svg>
