<svg width="50" height="50" viewBox="0 0 50 50" fill="none" xmlns="http://www.w3.org/2000/svg">
<g clip-path="url(#clip0_16_89)">
<path d="M47.9166 25C47.9166 39.8125 43.0624 46.375 30.3124 47.6667C28.5469 47.8391 26.7738 47.9225 24.9999 47.9167H22.7291C7.70825 47.3125 2.08325 40.9583 2.08325 25C2.08325 8.33333 8.33325 2.08333 24.9999 2.08333C41.6666 2.08333 47.9166 8.33333 47.9166 25Z" fill="url(#paint0_linear_16_89)"/>
<path d="M30.3125 21.9375V26.7917H37.3333L36.2292 33.9167H30.3125V47.6667C28.547 47.8391 26.7739 47.9225 25 47.9167H22.7292V33.9583H16.3125V26.7917H22.7292V21.4375C22.6652 20.141 22.8607 18.8448 23.3043 17.6249C23.7479 16.405 24.4307 15.2859 25.3125 14.3333C28.9375 10.4167 37.5 12.5 37.5 12.5V18.4583H33.7917C32.8689 18.4583 31.984 18.8249 31.3315 19.4774C30.6791 20.1298 30.3125 21.0148 30.3125 21.9375Z" fill="white"/>
</g>
<defs>
<linearGradient id="paint0_linear_16_89" x1="24.9999" y1="47.9167" x2="24.9999" y2="2.08333" gradientUnits="userSpaceOnUse">
<stop stop-color="#0066EF"/>
<stop offset="1" stop-color="#00B2FF"/>
</linearGradient>
<clipPath id="clip0_16_89">
<rect width="50" height="50" fill="white"/>
</clipPath>
</defs>
</svg>
