<svg width="204" height="159" viewBox="0 0 204 159" fill="none" xmlns="http://www.w3.org/2000/svg">
<g clip-path="url(#clip0_65_2308)">
<path d="M23.6628 101.246C23.6168 100.503 23.4075 99.7787 23.0497 99.1256C22.6919 98.4725 22.1944 97.9064 21.5928 97.4675C20.1263 96.4962 18.3857 96.0239 16.6294 96.1209C15.4022 96.0885 14.1801 96.2895 13.028 96.7134C12.1431 97.0359 11.3669 97.6013 10.7887 98.3448C10.2795 99.0292 10.0091 99.8619 10.0192 100.715C9.97781 101.392 10.1443 102.066 10.4963 102.646C10.8561 103.221 11.3399 103.707 11.9122 104.07C12.5693 104.489 13.2714 104.832 14.0053 105.093C14.8317 105.404 15.6774 105.661 16.537 105.863L20.2384 106.748C21.934 107.117 23.5889 107.653 25.1788 108.349C26.5989 108.965 27.913 109.801 29.0725 110.826C30.159 111.788 31.0342 112.964 31.6427 114.282C32.2722 115.72 32.5895 117.275 32.5738 118.845C32.616 121.172 31.9475 123.456 30.6577 125.393C29.2846 127.317 27.3846 128.803 25.1864 129.672C22.454 130.758 19.5305 131.282 16.5909 131.211C13.6246 131.271 10.6755 130.748 7.9107 129.672C5.58772 128.764 3.5869 127.187 2.16238 125.14C0.724133 122.923 -0.0280726 120.332 2.70535e-05 117.691H8.46476C8.50965 118.933 8.92502 120.134 9.65751 121.138C10.3933 122.078 11.3766 122.795 12.497 123.208C13.7863 123.688 15.1538 123.923 16.5293 123.901C17.8403 123.927 19.1447 123.71 20.3769 123.262C21.3696 122.9 22.2486 122.281 22.9241 121.469C23.5193 120.722 23.8374 119.792 23.8244 118.837C23.8478 117.993 23.5571 117.171 23.0087 116.529C22.3537 115.816 21.5424 115.266 20.6386 114.92C19.4046 114.413 18.1305 114.009 16.8294 113.712L12.3431 112.581C9.31799 111.958 6.4928 110.599 4.11696 108.626C3.10174 107.706 2.30369 106.573 1.78064 105.307C1.25758 104.041 1.02261 102.675 1.09275 101.307C1.03311 98.9703 1.73536 96.6772 3.0935 94.7742C4.52122 92.8484 6.44007 91.3415 8.64944 90.411C11.1946 89.3384 13.9372 88.814 16.6986 88.872C19.4486 88.8014 22.1813 89.3264 24.7093 90.411C26.8575 91.3456 28.7057 92.8555 30.0498 94.7742C31.3381 96.6863 32.0242 98.9403 32.0198 101.246H23.6628Z" fill="#0823B5"/>
<path d="M38.4068 130.588V89.4028H47.1101V123.408H64.7706V130.588H38.4068Z" fill="#0823B5"/>
<path d="M79.2453 89.4028V130.588H70.542V89.4028H79.2453Z" fill="#0823B5"/>
<path d="M113.735 102.716C113.478 101.791 113.075 100.913 112.542 100.115C112.045 99.3649 111.417 98.7107 110.688 98.1831C109.932 97.6387 109.089 97.2275 108.195 96.9673C107.195 96.6749 106.158 96.5322 105.117 96.5441C103.158 96.4931 101.228 97.0291 99.576 98.0831C97.9188 99.2061 96.6267 100.79 95.8592 102.639C94.9141 104.949 94.4633 107.431 94.5357 109.926C94.4688 112.429 94.914 114.919 95.8439 117.244C96.5913 119.117 97.8799 120.724 99.5452 121.861C101.228 122.94 103.195 123.489 105.194 123.439C106.938 123.49 108.67 123.129 110.249 122.385C111.596 121.734 112.717 120.694 113.466 119.399C114.238 118.004 114.623 116.429 114.582 114.836L116.352 115.097H105.748V108.541H122.977V113.735C123.065 116.993 122.267 120.214 120.669 123.054C119.18 125.613 116.991 127.693 114.359 129.049C111.319 130.506 107.977 131.224 104.607 131.144C101.237 131.064 97.9336 130.187 94.9666 128.587C92.0334 126.864 89.6625 124.327 88.1409 121.284C86.4515 117.78 85.6281 113.922 85.74 110.034C85.6909 106.993 86.1833 103.968 87.1944 101.1C88.0815 98.6181 89.4758 96.3486 91.2883 94.4356C93.0214 92.6264 95.12 91.2072 97.4445 90.2724C99.8531 89.304 102.428 88.8177 105.024 88.8411C107.238 88.8221 109.439 89.1652 111.542 89.8569C113.49 90.4922 115.312 91.4608 116.929 92.7195C118.475 93.9307 119.78 95.4212 120.776 97.1135C121.778 98.8355 122.427 100.74 122.685 102.716H113.735Z" fill="#0823B5"/>
<path d="M129.495 130.588V89.4028H138.206V106.394H155.905V89.4028H164.593V130.588H155.882V113.573H138.183V130.588H129.495Z" fill="#0823B5"/>
<path d="M170.18 96.5825V89.4028H204V96.5825H191.395V130.588H182.784V96.5825H170.18Z" fill="#0823B5"/>
<path d="M61.0615 150.303V149.179H66.9791V150.303H64.6705V156.59H63.3392V150.303H61.0615Z" fill="#0823B5"/>
<path d="M68.9029 156.705C68.5774 156.708 68.2548 156.643 67.9564 156.513C67.6836 156.394 67.4511 156.199 67.2869 155.951C67.1166 155.674 67.031 155.353 67.0407 155.028C67.0317 154.76 67.0927 154.495 67.2176 154.258C67.3325 154.059 67.4935 153.89 67.687 153.766C67.9001 153.639 68.131 153.546 68.3719 153.489C68.6236 153.419 68.8812 153.372 69.1414 153.35L69.911 153.258C70.0638 153.24 70.2123 153.196 70.3496 153.127C70.3951 153.097 70.4319 153.056 70.4562 153.007C70.4806 152.958 70.4916 152.904 70.4881 152.85C70.4958 152.733 70.4785 152.615 70.4373 152.505C70.3962 152.395 70.3322 152.295 70.2496 152.211C70.0522 152.052 69.8024 151.972 69.5493 151.988C69.2761 151.973 69.0057 152.049 68.7798 152.203C68.6055 152.324 68.4735 152.496 68.4027 152.696L67.1792 152.527C67.2629 152.206 67.4271 151.912 67.6563 151.672C67.8862 151.442 68.1649 151.266 68.472 151.157C68.8143 151.043 69.1731 150.986 69.5339 150.988C69.793 150.99 70.0511 151.021 70.3034 151.08C70.5606 151.144 70.8052 151.25 71.0268 151.395C71.2506 151.539 71.4336 151.738 71.5577 151.973C71.7017 152.258 71.7706 152.576 71.7578 152.896V156.62H70.5805V155.851H70.5343C70.4504 156.013 70.3384 156.159 70.2034 156.282C70.0429 156.423 69.8577 156.532 69.657 156.605C69.4133 156.682 69.1582 156.716 68.9029 156.705ZM69.2415 155.736C69.4792 155.744 69.7151 155.691 69.9264 155.582C70.1093 155.485 70.2633 155.342 70.3727 155.166C70.4783 154.995 70.5342 154.798 70.5343 154.597V153.943C70.4692 153.982 70.3994 154.013 70.3265 154.035L69.9956 154.112L69.6339 154.166L69.3338 154.212C69.1518 154.232 68.9733 154.276 68.8029 154.343C68.6621 154.394 68.5374 154.482 68.4412 154.597C68.3448 154.71 68.2953 154.856 68.3027 155.004C68.2963 155.111 68.3178 155.218 68.365 155.313C68.4122 155.409 68.4836 155.491 68.572 155.551C68.7691 155.684 69.0042 155.748 69.2415 155.736ZM69.5801 158.59C69.383 158.592 69.193 158.517 69.0491 158.383C68.9783 158.319 68.9217 158.241 68.883 158.155C68.8442 158.068 68.8242 157.974 68.8242 157.879C68.8242 157.784 68.8442 157.69 68.883 157.603C68.9217 157.516 68.9783 157.438 69.0491 157.375C69.1926 157.236 69.3844 157.158 69.5839 157.158C69.7835 157.158 69.9752 157.236 70.1187 157.375C70.1895 157.438 70.2461 157.516 70.2849 157.603C70.3237 157.69 70.3437 157.784 70.3437 157.879C70.3437 157.974 70.3237 158.068 70.2849 158.155C70.2461 158.241 70.1895 158.319 70.1187 158.383C69.973 158.519 69.7798 158.594 69.5801 158.59Z" fill="#0823B5"/>
<path d="M75.5824 156.698C75.0883 156.712 74.6003 156.586 74.1741 156.336C73.7751 156.1 73.4541 155.752 73.2507 155.336C73.0149 154.858 72.9012 154.329 72.9198 153.797C72.9031 153.264 73.0167 152.736 73.2507 152.257C73.4541 151.841 73.7751 151.493 74.1741 151.257C74.607 151.02 75.0926 150.896 75.5862 150.896C76.0798 150.896 76.5654 151.02 76.9983 151.257C77.3956 151.495 77.7161 151.842 77.9217 152.257C78.1493 152.738 78.26 153.265 78.2449 153.797C78.2618 154.328 78.151 154.856 77.9217 155.336C77.7161 155.751 77.3956 156.098 76.9983 156.336C76.5697 156.587 76.079 156.713 75.5824 156.698ZM75.5824 155.651C75.8603 155.666 76.1341 155.578 76.3519 155.405C76.5571 155.231 76.7114 155.005 76.7982 154.751C76.9934 154.151 76.9934 153.504 76.7982 152.904C76.7137 152.646 76.5591 152.417 76.3519 152.242C76.1371 152.083 75.8767 151.997 75.6093 151.997C75.3419 151.997 75.0815 152.083 74.8667 152.242C74.6572 152.415 74.5022 152.645 74.4204 152.904C74.2252 153.504 74.2252 154.151 74.4204 154.751C74.5043 155.007 74.6591 155.233 74.8667 155.405C75.0726 155.567 75.3279 155.654 75.59 155.651H75.5824Z" fill="#0823B5"/>
<path d="M85.9708 151.211C85.9606 151.065 85.9171 150.923 85.8438 150.796C85.7704 150.67 85.6691 150.561 85.5476 150.48C85.26 150.292 84.9213 150.198 84.578 150.21C84.3306 150.205 84.0845 150.249 83.8547 150.341C83.6727 150.41 83.5129 150.527 83.3929 150.68C83.2892 150.826 83.2328 151.001 83.2314 151.18C83.23 151.321 83.2673 151.459 83.3391 151.58C83.4124 151.697 83.5126 151.795 83.6315 151.865C83.7586 151.948 83.8956 152.015 84.0393 152.065C84.1871 152.12 84.3389 152.164 84.4934 152.196L85.1859 152.373C85.4629 152.434 85.7334 152.522 85.9939 152.634C86.2454 152.743 86.481 152.886 86.6942 153.058C86.8991 153.224 87.0668 153.431 87.1867 153.666C87.308 153.928 87.3685 154.215 87.3637 154.504C87.3746 154.912 87.259 155.312 87.0328 155.651C86.7932 155.995 86.4591 156.262 86.0709 156.42C85.5832 156.62 85.0587 156.715 84.5318 156.697C84.0058 156.714 83.482 156.622 82.9928 156.428C82.5942 156.273 82.2492 156.006 82.0001 155.659C81.7508 155.288 81.6169 154.851 81.6154 154.404H82.9389C82.9432 154.64 83.0273 154.868 83.1775 155.051C83.3225 155.225 83.511 155.358 83.7238 155.435C83.9706 155.524 84.2315 155.565 84.4934 155.559C84.756 155.567 85.0177 155.522 85.2629 155.428C85.4687 155.356 85.6501 155.228 85.7862 155.058C85.9098 154.9 85.9775 154.705 85.9785 154.504C85.9775 154.331 85.9179 154.163 85.8092 154.027C85.6793 153.885 85.5188 153.775 85.3398 153.704C85.1157 153.61 84.884 153.536 84.6473 153.481L83.8008 153.258C83.267 153.142 82.77 152.896 82.3541 152.542C82.1776 152.382 82.0385 152.186 81.9467 151.967C81.8549 151.747 81.8127 151.51 81.8231 151.272C81.8164 150.859 81.9433 150.454 82.1848 150.118C82.4354 149.781 82.7697 149.516 83.1544 149.348C83.5936 149.158 84.0685 149.063 84.5472 149.071C85.0236 149.062 85.4963 149.156 85.9324 149.348C86.3074 149.518 86.6311 149.784 86.8712 150.118C87.0953 150.444 87.216 150.83 87.2175 151.226L85.9708 151.211Z" fill="#0823B5"/>
<path d="M89.8107 149.179V156.59H88.5026V149.179H89.8107Z" fill="#0823B5"/>
<path d="M91.8192 150.241C91.6195 150.245 91.4263 150.17 91.2805 150.033C91.2098 149.97 91.1532 149.892 91.1144 149.805C91.0756 149.719 91.0556 149.625 91.0556 149.529C91.0556 149.434 91.0756 149.34 91.1144 149.253C91.1532 149.167 91.2098 149.089 91.2805 149.025C91.4244 148.884 91.6178 148.805 91.8192 148.805C92.0206 148.805 92.214 148.884 92.3579 149.025C92.4284 149.09 92.4848 149.168 92.5232 149.256C92.5616 149.343 92.5813 149.438 92.581 149.533C92.5812 149.628 92.5614 149.721 92.5229 149.807C92.4845 149.893 92.4282 149.971 92.3579 150.033C92.2121 150.17 92.0189 150.245 91.8192 150.241ZM91.1574 156.59V151.026H92.4733V156.59H91.1574Z" fill="#0823B5"/>
<path d="M95.8823 156.69C95.4652 156.695 95.0558 156.577 94.7049 156.351C94.3468 156.109 94.0642 155.77 93.8892 155.374C93.4892 154.371 93.4892 153.253 93.8892 152.25C94.0708 151.858 94.3587 151.524 94.7203 151.288C95.0671 151.067 95.471 150.952 95.8823 150.957C96.1485 150.952 96.4121 151.01 96.6518 151.126C96.8413 151.222 97.009 151.355 97.1443 151.519C97.2564 151.652 97.3544 151.796 97.4367 151.95H97.4906V149.179H98.8219V156.59H97.5368V155.713H97.4598C97.3773 155.868 97.2766 156.012 97.1597 156.144C97.0196 156.303 96.8497 156.434 96.6595 156.528C96.4162 156.641 96.1503 156.696 95.8823 156.69ZM96.244 155.613C96.4982 155.619 96.7472 155.54 96.9519 155.389C97.1582 155.226 97.3131 155.007 97.3983 154.758C97.5042 154.454 97.5563 154.134 97.5522 153.812C97.5582 153.492 97.506 153.174 97.3983 152.873C97.315 152.63 97.1626 152.416 96.9596 152.258C96.7543 152.102 96.5012 152.023 96.244 152.034C95.9693 152.016 95.697 152.095 95.4745 152.258C95.2729 152.423 95.1211 152.642 95.0358 152.889C94.8306 153.487 94.8306 154.137 95.0358 154.735C95.1207 154.989 95.2754 155.213 95.4822 155.382C95.6997 155.548 95.9704 155.631 96.244 155.613Z" fill="#0823B5"/>
<path d="M102.669 156.698C102.168 156.711 101.671 156.592 101.23 156.351C100.829 156.119 100.506 155.774 100.299 155.359C100.081 154.884 99.9681 154.369 99.9681 153.846C99.9681 153.324 100.081 152.809 100.299 152.334C100.504 151.917 100.821 151.565 101.215 151.319C101.634 151.072 102.114 150.946 102.6 150.957C102.934 150.954 103.265 151.011 103.577 151.126C103.88 151.235 104.156 151.409 104.385 151.634C104.631 151.881 104.82 152.177 104.94 152.504C105.084 152.908 105.151 153.336 105.14 153.766V154.166H100.584V153.281H103.885C103.888 153.048 103.833 152.817 103.724 152.611C103.616 152.415 103.456 152.252 103.262 152.141C103.068 152.03 102.847 151.974 102.623 151.98C102.374 151.973 102.127 152.04 101.915 152.173C101.718 152.299 101.556 152.474 101.446 152.681C101.329 152.89 101.268 153.126 101.269 153.366V154.135C101.262 154.422 101.323 154.707 101.446 154.966C101.558 155.188 101.732 155.372 101.946 155.497C102.182 155.625 102.447 155.688 102.716 155.682C102.891 155.683 103.065 155.655 103.231 155.597C103.379 155.544 103.514 155.463 103.631 155.359C103.749 155.249 103.836 155.111 103.885 154.958L105.109 155.097C105.037 155.412 104.886 155.703 104.67 155.943C104.442 156.189 104.161 156.379 103.847 156.497C103.472 156.642 103.071 156.71 102.669 156.698Z" fill="#0823B5"/>
<path d="M111.588 151.026V152.042H108.395V151.026H111.588ZM109.18 149.695H110.488V154.92C110.479 155.058 110.509 155.197 110.572 155.32C110.621 155.407 110.696 155.474 110.788 155.512C110.885 155.545 110.986 155.56 111.088 155.559C111.162 155.566 111.237 155.566 111.311 155.559H111.465L111.688 156.582C111.59 156.615 111.49 156.641 111.388 156.659C111.234 156.692 111.077 156.71 110.919 156.713C110.616 156.728 110.314 156.675 110.034 156.559C109.776 156.459 109.555 156.282 109.403 156.051C109.247 155.788 109.17 155.487 109.18 155.181V149.695Z" fill="#0823B5"/>
<path d="M114.112 153.335V156.59H112.796V149.179H114.081V151.973H114.143C114.26 151.659 114.472 151.389 114.751 151.203C115.064 151.008 115.429 150.912 115.798 150.926C116.152 150.919 116.502 151.004 116.813 151.172C117.102 151.334 117.333 151.582 117.475 151.88C117.645 152.235 117.727 152.626 117.714 153.019V156.559H116.405V153.219C116.423 152.903 116.318 152.592 116.113 152.35C116.014 152.247 115.894 152.165 115.761 152.111C115.629 152.057 115.487 152.031 115.343 152.034C115.126 152.032 114.912 152.085 114.72 152.188C114.538 152.284 114.39 152.435 114.297 152.619C114.17 152.836 114.106 153.084 114.112 153.335Z" fill="#0823B5"/>
<path d="M120.646 156.705C120.32 156.709 119.997 156.643 119.699 156.513C119.426 156.394 119.194 156.199 119.03 155.951C118.859 155.674 118.774 155.353 118.783 155.028C118.774 154.76 118.835 154.495 118.96 154.258C119.074 154.055 119.238 153.885 119.437 153.766C119.647 153.638 119.876 153.544 120.115 153.489C120.366 153.419 120.624 153.373 120.884 153.35L121.654 153.258C121.806 153.24 121.955 153.196 122.092 153.127C122.138 153.097 122.175 153.056 122.199 153.007C122.223 152.958 122.234 152.904 122.231 152.85C122.238 152.733 122.221 152.615 122.18 152.505C122.139 152.395 122.075 152.295 121.992 152.211C121.795 152.051 121.545 151.972 121.292 151.988C121.019 151.974 120.748 152.049 120.522 152.204C120.348 152.324 120.216 152.496 120.145 152.696L118.922 152.527C119.006 152.206 119.17 151.912 119.399 151.673C119.629 151.442 119.908 151.266 120.215 151.157C120.557 151.044 120.916 150.986 121.277 150.988C121.536 150.99 121.794 151.021 122.046 151.08C122.306 151.144 122.553 151.25 122.777 151.396C122.997 151.541 123.177 151.74 123.3 151.973C123.447 152.258 123.519 152.576 123.508 152.896V156.621H122.246V155.851H122.2C122.116 156.013 122.004 156.159 121.869 156.282C121.71 156.421 121.528 156.531 121.33 156.605C121.109 156.674 120.878 156.707 120.646 156.705ZM122.115 150.364L121.346 149.433L120.576 150.364H119.43V150.311L120.799 148.771H121.908L123.277 150.311V150.364H122.115ZM120.984 155.751C121.222 155.759 121.458 155.706 121.669 155.597C121.852 155.501 122.006 155.357 122.115 155.182C122.221 155.01 122.277 154.813 122.277 154.612V153.958C122.213 153.999 122.143 154.03 122.069 154.05L121.738 154.127L121.384 154.181L121.076 154.227C120.897 154.246 120.721 154.29 120.553 154.358C120.41 154.409 120.283 154.497 120.184 154.612C120.089 154.726 120.043 154.872 120.053 155.02C120.046 155.126 120.066 155.232 120.112 155.328C120.158 155.423 120.228 155.506 120.315 155.566C120.514 155.694 120.749 155.753 120.984 155.736V155.751ZM121.33 158.606C121.131 158.609 120.938 158.535 120.792 158.398C120.721 158.335 120.664 158.257 120.626 158.17C120.587 158.083 120.567 157.989 120.567 157.894C120.567 157.799 120.587 157.705 120.626 157.618C120.664 157.531 120.721 157.454 120.792 157.39C120.938 157.254 121.131 157.179 121.33 157.182C121.527 157.181 121.717 157.255 121.861 157.39C121.932 157.454 121.989 157.531 122.027 157.618C122.066 157.705 122.086 157.799 122.086 157.894C122.086 157.989 122.066 158.083 122.027 158.17C121.989 158.257 121.932 158.335 121.861 158.398C121.715 158.527 121.525 158.596 121.33 158.591V158.606Z" fill="#0823B5"/>
<path d="M127.679 151.026V152.042H124.485V151.026H127.679ZM125.27 149.695H126.586V154.92C126.575 155.058 126.602 155.196 126.663 155.32C126.711 155.407 126.787 155.474 126.879 155.512C126.976 155.544 127.077 155.559 127.179 155.559C127.253 155.566 127.328 155.566 127.402 155.559H127.556L127.779 156.582C127.681 156.615 127.581 156.641 127.479 156.659C127.324 156.692 127.167 156.71 127.009 156.713C126.707 156.728 126.404 156.675 126.124 156.559C125.87 156.457 125.652 156.28 125.501 156.051C125.339 155.791 125.259 155.488 125.27 155.181V149.695Z" fill="#0823B5"/>
<path d="M133.366 156.69C132.951 156.694 132.545 156.576 132.196 156.351C131.838 156.109 131.555 155.77 131.38 155.374C130.98 154.371 130.98 153.253 131.38 152.25C131.562 151.858 131.85 151.524 132.211 151.288C132.558 151.066 132.962 150.951 133.373 150.957C133.64 150.95 133.904 151.008 134.143 151.126C134.335 151.221 134.506 151.355 134.643 151.519C134.756 151.65 134.851 151.795 134.928 151.95H134.989V149.179H136.305V156.59H135.02V155.713H134.989C134.913 155.869 134.814 156.014 134.697 156.144C134.556 156.306 134.383 156.437 134.189 156.528C133.932 156.65 133.649 156.705 133.366 156.69ZM133.735 155.613C133.989 155.619 134.238 155.54 134.443 155.389C134.649 155.226 134.804 155.007 134.889 154.758C134.995 154.454 135.047 154.134 135.043 153.812C135.049 153.492 134.997 153.174 134.889 152.873C134.806 152.63 134.654 152.416 134.451 152.258C134.245 152.103 133.992 152.024 133.735 152.034C133.46 152.016 133.188 152.095 132.966 152.258C132.761 152.423 132.607 152.641 132.519 152.889C132.42 153.186 132.37 153.498 132.373 153.812C132.369 154.126 132.421 154.439 132.527 154.735C132.612 154.989 132.766 155.213 132.973 155.382C133.191 155.548 133.462 155.631 133.735 155.613Z" fill="#0823B5"/>
<path d="M140.191 156.698C139.69 156.711 139.193 156.592 138.752 156.351C138.351 156.117 138.025 155.772 137.814 155.359C137.585 154.879 137.474 154.351 137.49 153.82C137.473 153.287 137.586 152.759 137.821 152.281C138.026 151.863 138.343 151.511 138.737 151.265C139.156 151.018 139.636 150.893 140.122 150.903C140.453 150.899 140.782 150.957 141.092 151.072C141.398 151.18 141.676 151.353 141.907 151.58C142.152 151.827 142.341 152.123 142.461 152.45C142.618 152.865 142.694 153.307 142.685 153.75V154.15H138.129V153.266H141.43C141.433 153.032 141.378 152.802 141.269 152.596C141.16 152.399 141 152.235 140.804 152.124C140.608 152.012 140.386 151.957 140.161 151.965C139.913 151.959 139.67 152.026 139.46 152.157C139.26 152.283 139.096 152.458 138.983 152.665C138.872 152.877 138.814 153.112 138.814 153.35V154.12C138.807 154.407 138.868 154.691 138.991 154.951C139.1 155.172 139.271 155.356 139.483 155.482C139.719 155.609 139.985 155.673 140.253 155.666C140.431 155.667 140.608 155.638 140.776 155.582C140.923 155.528 141.059 155.448 141.176 155.343C141.294 155.234 141.381 155.096 141.43 154.943L142.654 155.082C142.582 155.396 142.431 155.688 142.215 155.928C141.987 156.174 141.705 156.364 141.392 156.482C141.01 156.635 140.602 156.708 140.191 156.698ZM140.468 149.349L141.954 150.495H140.945L140.076 149.833L139.222 150.495H138.206L139.691 149.349H140.468ZM140.907 148.102L141.399 148.271C141.401 148.468 141.326 148.658 141.192 148.802C141.131 148.883 141.051 148.947 140.96 148.99C140.869 149.033 140.769 149.053 140.668 149.049C140.561 149.051 140.455 149.035 140.353 149.002L140.099 148.887L139.868 148.772C139.786 148.733 139.697 148.715 139.606 148.718C139.564 148.718 139.521 148.728 139.483 148.747C139.444 148.765 139.41 148.792 139.383 148.825C139.323 148.893 139.29 148.981 139.291 149.072L138.814 148.941C138.81 148.745 138.882 148.555 139.014 148.41C139.074 148.329 139.154 148.263 139.245 148.219C139.336 148.175 139.436 148.153 139.537 148.156C139.632 148.154 139.727 148.173 139.814 148.21C139.905 148.238 139.992 148.274 140.076 148.318L140.33 148.425C140.416 148.457 140.507 148.472 140.599 148.471C140.642 148.47 140.683 148.459 140.72 148.439C140.758 148.419 140.79 148.39 140.815 148.356C140.874 148.285 140.907 148.195 140.907 148.102Z" fill="#0823B5"/>
<path opacity="0.7" d="M168.24 71.9041H40.423C34.6823 71.9041 28.6647 64.586 29.7728 58.9608L45.8327 13.1127C46.2423 11.0442 47.3567 9.18188 48.9859 7.84317C50.6151 6.50445 52.6582 5.77228 54.7668 5.77148H154.227C156.343 5.77077 158.393 6.50706 160.025 7.85382C161.657 9.20057 162.769 11.0737 163.169 13.1512L179.052 60.5845C180.129 66.202 173.966 71.9041 168.24 71.9041Z" stroke="#DEDEDE" stroke-width="3.5" stroke-miterlimit="10"/>
<path d="M168.24 68.8337H40.423C39.0768 68.8341 37.7473 68.5362 36.5301 67.9615C35.3128 67.3867 34.238 66.5494 33.383 65.5097C32.528 64.47 31.914 63.2537 31.5851 61.9484C31.2563 60.643 31.2208 59.2811 31.4811 57.9604L45.8327 10.0423C46.2394 7.97172 47.3527 6.10675 48.9824 4.76626C50.612 3.42578 52.6567 2.69304 54.7668 2.69336H154.227C156.344 2.69299 158.395 3.43037 160.027 4.77865C161.659 6.12694 162.77 8.00182 163.169 10.0808L177.198 57.9988C177.45 59.3179 177.409 60.6765 177.075 61.9775C176.742 63.2786 176.126 64.4899 175.27 65.5251C174.414 66.5602 173.34 67.3935 172.125 67.9654C170.91 68.5374 169.583 68.8339 168.24 68.8337Z" fill="#0823B5" stroke="#0823B5" stroke-width="7.01" stroke-miterlimit="10"/>
<path d="M137.683 23.5166L111.781 25.0556L128.395 13.8899C133.189 16.26 136.567 19.6536 137.683 23.5166Z" fill="white"/>
<path d="M133.119 29.8035C133.119 33.0278 131.58 36.0443 128.856 38.553C124.17 42.9546 116.051 45.8557 106.81 45.8557C99.476 45.8557 92.8966 44.032 88.1255 41.1078C83.5084 38.299 80.6304 34.4053 80.4919 30.1498C80.4804 30.0347 80.4804 29.9187 80.4919 29.8035C80.4919 25.8636 82.8004 22.2699 86.7173 19.4843C91.5191 16.0137 98.7449 13.7744 106.833 13.7744V28.5569L132.735 27.0179C132.997 27.9229 133.127 28.8612 133.119 29.8035Z" fill="white"/>
<path opacity="0.8" d="M45.6018 57.9912H163.215" stroke="white" stroke-width="3.5" stroke-miterlimit="10" stroke-linecap="round"/>
<path opacity="0.8" d="M61.0769 51.7349H152.511" stroke="white" stroke-width="3.5" stroke-miterlimit="10" stroke-linecap="round"/>
<path d="M150.01 27.8259L155.766 31.5889L149.941 35.398" stroke="white" stroke-width="3.5" stroke-miterlimit="10" stroke-linecap="round"/>
<path d="M59.2993 27.8259L53.5433 31.5889L59.3685 35.398" stroke="white" stroke-width="3.5" stroke-miterlimit="10" stroke-linecap="round"/>
</g>
<defs>
<clipPath id="clip0_65_2308">
<rect width="204" height="158.598" fill="white"/>
</clipPath>
</defs>
</svg>
