<svg width="30" height="30" viewBox="0 0 30 30" fill="none" xmlns="http://www.w3.org/2000/svg">
<rect width="30" height="30" rx="15" fill="url(#paint0_linear_65_2303)"/>
<path d="M12.5035 15.0384C12.5035 13.6565 13.6231 12.536 15.0046 12.536C16.386 12.536 17.5063 13.6565 17.5063 15.0384C17.5063 16.4203 16.386 17.5408 15.0046 17.5408C13.6231 17.5408 12.5035 16.4203 12.5035 15.0384ZM11.1511 15.0384C11.1511 17.1673 12.8763 18.893 15.0046 18.893C17.1328 18.893 18.858 17.1673 18.858 15.0384C18.858 12.9095 17.1328 11.1838 15.0046 11.1838C12.8763 11.1838 11.1511 12.9095 11.1511 15.0384ZM18.11 11.031C18.11 11.2091 18.1627 11.3833 18.2616 11.5315C18.3605 11.6797 18.5011 11.7952 18.6656 11.8634C18.8302 11.9317 19.0112 11.9496 19.1859 11.9149C19.3606 11.8802 19.5211 11.7945 19.6471 11.6686C19.7731 11.5426 19.8589 11.3822 19.8937 11.2074C19.9286 11.0327 19.9108 10.8516 19.8427 10.687C19.7746 10.5223 19.6592 10.3816 19.5112 10.2826C19.3631 10.1835 19.1891 10.1306 19.0109 10.1305H19.0106C18.7718 10.1307 18.5429 10.2255 18.3741 10.3944C18.2052 10.5632 18.1103 10.7922 18.11 11.031ZM11.9727 21.1487C11.2411 21.1153 10.8434 20.9934 10.5791 20.8904C10.2288 20.754 9.97877 20.5915 9.71593 20.3289C9.45309 20.0664 9.29039 19.8165 9.15459 19.4661C9.05157 19.2018 8.9297 18.8039 8.89644 18.0721C8.86006 17.2808 8.85279 17.0431 8.85279 15.0385C8.85279 13.0338 8.86066 12.7968 8.89644 12.0049C8.92976 11.273 9.05253 10.8759 9.15459 10.6109C9.291 10.2604 9.45345 10.0103 9.71593 9.74741C9.97841 9.48449 10.2282 9.32175 10.5791 9.18591C10.8433 9.08286 11.2411 8.96095 11.9727 8.92768C12.7638 8.89129 13.0014 8.88402 15.0046 8.88402C17.0077 8.88402 17.2456 8.89189 18.0373 8.92768C18.7689 8.96101 19.166 9.08382 19.4309 9.18591C19.7813 9.32175 20.0313 9.48485 20.2941 9.74741C20.5569 10.01 20.719 10.2604 20.8554 10.6109C20.9585 10.8751 21.0803 11.273 21.1136 12.0049C21.15 12.7968 21.1572 13.0338 21.1572 15.0385C21.1572 17.0431 21.15 17.2801 21.1136 18.0721C21.0803 18.8039 20.9578 19.2017 20.8554 19.4661C20.719 19.8165 20.5566 20.0666 20.2941 20.3289C20.0316 20.5912 19.7813 20.754 19.4309 20.8904C19.1667 20.9935 18.7689 21.1154 18.0373 21.1487C17.2462 21.185 17.0086 21.1923 15.0046 21.1923C13.0005 21.1923 12.7635 21.185 11.9727 21.1487ZM11.9106 7.5772C11.1117 7.61359 10.5658 7.7403 10.0891 7.92587C9.59532 8.1175 9.17735 8.37459 8.75968 8.79172C8.34201 9.20885 8.08565 9.6276 7.89408 10.1215C7.70857 10.5987 7.58189 11.1444 7.54551 11.9436C7.50853 12.7439 7.50006 12.9998 7.50006 15.0384C7.50006 17.077 7.50853 17.3329 7.54551 18.1333C7.58189 18.9324 7.70857 19.4781 7.89408 19.9553C8.08565 20.4489 8.34207 20.8681 8.75968 21.2851C9.17729 21.702 9.59532 21.9588 10.0891 22.1509C10.5667 22.3365 11.1117 22.4632 11.9106 22.4996C12.7112 22.536 12.9666 22.5451 15.0046 22.5451C17.0425 22.5451 17.2984 22.5366 18.0985 22.4996C18.8975 22.4632 19.443 22.3365 19.9201 22.1509C20.4135 21.9588 20.8318 21.7022 21.2494 21.2851C21.6671 20.868 21.9229 20.4489 22.115 19.9553C22.3006 19.4781 22.4278 18.9324 22.4636 18.1333C22.5 17.3323 22.5085 17.077 22.5085 15.0384C22.5085 12.9998 22.5 12.7439 22.4636 11.9436C22.4272 11.1444 22.3006 10.5984 22.115 10.1215C21.9229 9.6279 21.6665 9.20951 21.2494 8.79172C20.8324 8.37393 20.4135 8.1175 19.9207 7.92587C19.443 7.7403 18.8974 7.61299 18.0991 7.5772C17.299 7.54081 17.0431 7.53174 15.0052 7.53174C12.9672 7.53174 12.7112 7.54021 11.9106 7.5772Z" fill="white"/>
<defs>
<linearGradient id="paint0_linear_65_2303" x1="29.4234" y1="30" x2="-0.576599" y2="-8.07516e-07" gradientUnits="userSpaceOnUse">
<stop stop-color="#FBE18A"/>
<stop offset="0.21" stop-color="#FCBB45"/>
<stop offset="0.38" stop-color="#F75274"/>
<stop offset="0.52" stop-color="#D53692"/>
<stop offset="0.74" stop-color="#8F39CE"/>
<stop offset="1" stop-color="#5B4FE9"/>
</linearGradient>
</defs>
</svg>
