<svg width="767" height="783" viewBox="0 0 767 783" fill="none" xmlns="http://www.w3.org/2000/svg">
<g clip-path="url(#clip0_29_395)" filter="url(#filter0_d_29_395)">
<g filter="url(#filter1_i_29_395)">
<path d="M523.416 253.539C541.161 234.477 539.836 203.975 520.773 186.23C501.711 168.485 471.762 169.115 454.017 188.177L367.788 282.863L414.949 198.285C427.632 175.54 419.475 146.818 396.729 134.135C373.982 121.451 345.261 129.609 332.578 152.355L263.256 276.676C261.283 280.214 258.835 283.466 255.98 286.341L225.263 317.277C210.17 331.021 174.763 367.914 165.755 405.032C151.526 451.557 166.039 503.727 185.612 536.924C205.185 570.12 232.59 596.679 283.316 617.124C351.268 639.092 410.057 616.399 453.941 568.468C488.804 532.005 520.472 490.471 533.018 474.473L418.916 364.866L523.416 253.539Z" fill="#EDB6A9"/>
<path d="M523.416 253.539C541.161 234.477 539.836 203.975 520.773 186.23C501.711 168.485 471.762 169.115 454.017 188.177L367.788 282.863L414.949 198.285C427.632 175.54 419.475 146.818 396.729 134.135C373.982 121.451 345.261 129.609 332.578 152.355L263.256 276.676C261.283 280.214 258.835 283.466 255.98 286.341L225.263 317.277C210.17 331.021 174.763 367.914 165.755 405.032C151.526 451.557 166.039 503.727 185.612 536.924C205.185 570.12 232.59 596.679 283.316 617.124C351.268 639.092 410.057 616.399 453.941 568.468C488.804 532.005 520.472 490.471 533.018 474.473L418.916 364.866L523.416 253.539Z" fill="url(#paint0_radial_29_395)"/>
</g>
<g filter="url(#filter2_f_29_395)">
<rect width="126.095" height="109.533" rx="22.2115" transform="matrix(-0.782677 -0.622429 -0.622429 0.782677 539.137 433.99)" fill="#A86257" fill-opacity="0.9"/>
</g>
<g filter="url(#filter3_f_29_395)">
<path d="M192.187 384.764C193.821 382.253 195.511 379.792 197.234 377.392C241.6 325.256 299.3 341.944 316.151 351.673L344.496 368.038C366.155 380.65 373.687 408.182 361.31 429.62C352.347 445.144 335.397 453.224 318.467 451.773L318.441 451.857C316.805 451.781 314.281 451.384 311.073 450.519C309.796 450.193 308.527 449.81 307.268 449.369C302.461 447.765 296.617 445.271 290.188 441.559C289.723 441.291 289.268 441.029 288.824 440.772L288.917 440.611L192.187 384.764Z" fill="#A86257" fill-opacity="0.9"/>
</g>
<rect width="92.7063" height="133.059" rx="19.1819" transform="matrix(-0.782677 -0.622429 -0.622429 0.782677 576.741 419.606)" fill="#EAB89A"/>
<rect width="92.7063" height="133.059" rx="19.1819" transform="matrix(-0.782677 -0.622429 -0.622429 0.782677 576.741 419.606)" fill="url(#paint1_linear_29_395)"/>
<rect width="92.7063" height="133.059" rx="19.1819" transform="matrix(-0.782677 -0.622429 -0.622429 0.782677 576.741 419.606)" fill="url(#paint2_linear_29_395)"/>
<rect width="92.7063" height="133.059" rx="19.1819" transform="matrix(-0.782677 -0.622429 -0.622429 0.782677 576.741 419.606)" fill="url(#paint3_radial_29_395)" fill-opacity="0.9"/>
<rect width="92.7063" height="133.059" rx="19.1819" transform="matrix(-0.782677 -0.622429 -0.622429 0.782677 576.741 419.606)" fill="url(#paint4_radial_29_395)"/>
<path d="M523.415 253.539C541.16 234.477 539.835 203.975 520.773 186.23C501.711 168.485 471.762 169.115 454.017 188.177L358.191 292.625C340.446 311.688 363.731 325.522 378.367 340.428C393.003 355.334 416.035 369.743 433.78 350.681L523.415 253.539Z" fill="url(#paint5_linear_29_395)"/>
<path d="M523.415 253.539C541.16 234.477 539.835 203.975 520.773 186.23C501.711 168.485 471.762 169.115 454.017 188.177L358.191 292.625C340.446 311.688 363.731 325.522 378.367 340.428C393.003 355.334 416.035 369.743 433.78 350.681L523.415 253.539Z" fill="url(#paint6_linear_29_395)"/>
<path d="M523.415 253.539C541.16 234.477 539.835 203.975 520.773 186.23C501.711 168.485 471.762 169.115 454.017 188.177L358.191 292.625C340.446 311.688 363.731 325.522 378.367 340.428C393.003 355.334 416.035 369.743 433.78 350.681L523.415 253.539Z" fill="url(#paint7_linear_29_395)"/>
<path d="M523.415 253.539C541.16 234.477 539.835 203.975 520.773 186.23C501.711 168.485 471.762 169.115 454.017 188.177L358.191 292.625C340.446 311.688 363.731 325.522 378.367 340.428C393.003 355.334 416.035 369.743 433.78 350.681L523.415 253.539Z" fill="url(#paint8_linear_29_395)"/>
<path d="M523.415 253.539C541.16 234.477 539.835 203.975 520.773 186.23C501.711 168.485 471.762 169.115 454.017 188.177L358.191 292.625C340.446 311.688 363.731 325.522 378.367 340.428C393.003 355.334 416.035 369.743 433.78 350.681L523.415 253.539Z" fill="url(#paint9_radial_29_395)"/>
<path d="M415.701 198.721C428.384 175.975 420.227 147.254 397.481 134.571C374.735 121.887 345.259 129.602 332.575 152.348L282.329 242.453C269.646 265.199 283.333 280.2 306.079 292.883C328.825 305.566 351.322 311.006 364.006 288.26L415.701 198.721Z" fill="url(#paint10_linear_29_395)"/>
<path d="M415.701 198.721C428.384 175.975 420.227 147.254 397.481 134.571C374.735 121.887 345.259 129.602 332.575 152.348L282.329 242.453C269.646 265.199 283.333 280.2 306.079 292.883C328.825 305.566 351.322 311.006 364.006 288.26L415.701 198.721Z" fill="url(#paint11_linear_29_395)"/>
<path d="M415.701 198.721C428.384 175.975 420.227 147.254 397.481 134.571C374.735 121.887 345.259 129.602 332.575 152.348L282.329 242.453C269.646 265.199 283.333 280.2 306.079 292.883C328.825 305.566 351.322 311.006 364.006 288.26L415.701 198.721Z" fill="url(#paint12_radial_29_395)"/>
<path d="M523.416 253.539C541.161 234.477 539.836 203.975 520.773 186.23C501.711 168.485 471.762 169.115 454.017 188.177L367.788 282.863L414.949 198.285C427.632 175.54 419.475 146.818 396.729 134.135C373.982 121.451 345.261 129.609 332.578 152.355L263.256 276.676C261.283 280.214 258.835 283.466 255.98 286.341L225.263 317.277C210.17 331.021 174.763 367.914 165.755 405.032C151.526 451.557 166.039 503.727 185.612 536.924C205.185 570.12 232.59 596.679 283.316 617.124C351.268 639.092 410.057 616.399 453.941 568.468C488.804 532.005 520.472 490.471 533.018 474.473L418.916 364.866L523.416 253.539Z" fill="url(#paint13_radial_29_395)"/>
<g filter="url(#filter4_f_29_395)">
<rect width="15.6363" height="94.8771" rx="7.81813" transform="matrix(-0.786519 -0.617566 -0.617566 0.786519 513.595 394.106)" fill="#D99F7E"/>
</g>
<rect width="94.9891" height="155.536" rx="19.1819" transform="matrix(-0.782677 -0.622429 -0.622429 0.782677 530.981 360.78)" fill="#F7C2AA"/>
<rect width="94.9891" height="155.536" rx="19.1819" transform="matrix(-0.782677 -0.622429 -0.622429 0.782677 530.981 360.78)" fill="url(#paint14_linear_29_395)"/>
<rect width="94.9891" height="155.536" rx="19.1819" transform="matrix(-0.782677 -0.622429 -0.622429 0.782677 530.981 360.78)" fill="url(#paint15_linear_29_395)"/>
<rect width="94.9891" height="155.536" rx="19.1819" transform="matrix(-0.782677 -0.622429 -0.622429 0.782677 530.981 360.78)" fill="url(#paint16_radial_29_395)" fill-opacity="0.9"/>
<rect width="94.9891" height="155.536" rx="19.1819" transform="matrix(-0.782677 -0.622429 -0.622429 0.782677 530.981 360.78)" fill="url(#paint17_radial_29_395)"/>
<g opacity="0.5" filter="url(#filter5_f_29_395)">
<rect width="18.2323" height="65.3619" rx="9.11616" transform="matrix(-0.784448 -0.620194 -0.620194 0.784448 517.491 414.868)" fill="url(#paint18_linear_29_395)"/>
</g>
<g opacity="0.5" filter="url(#filter6_f_29_395)">
<rect width="40.6413" height="109.404" rx="20.3207" transform="matrix(-0.784448 -0.620194 -0.620194 0.784448 484.947 348.191)" fill="url(#paint19_linear_29_395)"/>
</g>
<g filter="url(#filter7_f_29_395)">
<path d="M479.185 207.951L387.948 304.789" stroke="#FFD9BD" stroke-width="11.1058" stroke-linecap="square"/>
</g>
<g filter="url(#filter8_f_29_395)">
<path d="M365.772 156.35L298.733 282.299" stroke="#FFD9BD" stroke-width="11.1058" stroke-linecap="square"/>
</g>
<path d="M189.178 357.869C178.899 372.221 169.741 388.605 165.755 405.033C156.596 434.98 159.346 467.267 167.688 495.327L211.741 472.576C229.953 435.768 245.141 420.453 254.915 417.105C265.935 413.329 269.884 415.609 286.464 425.181C293.197 429.069 299.323 431.671 304.365 433.338C305.685 433.798 307.016 434.195 308.356 434.533C311.722 435.428 314.371 435.832 316.09 435.903L316.118 435.814C333.899 437.246 351.76 428.595 361.272 412.119C374.408 389.368 366.661 360.289 343.978 347.079L314.292 329.94C296.644 319.751 236.115 302.449 189.178 357.869Z" fill="#EDB6A9"/>
<path d="M189.178 357.869C178.899 372.221 169.741 388.605 165.755 405.033C156.596 434.98 159.346 467.267 167.688 495.327L211.741 472.576C229.953 435.768 245.141 420.453 254.915 417.105C265.935 413.329 269.884 415.609 286.464 425.181C293.197 429.069 299.323 431.671 304.365 433.338C305.685 433.798 307.016 434.195 308.356 434.533C311.722 435.428 314.371 435.832 316.09 435.903L316.118 435.814C333.899 437.246 351.76 428.595 361.272 412.119C374.408 389.368 366.661 360.289 343.978 347.079L314.292 329.94C296.644 319.751 236.115 302.449 189.178 357.869Z" fill="url(#paint20_radial_29_395)"/>
<path d="M189.178 357.869C178.899 372.221 169.741 388.605 165.755 405.033C156.596 434.98 159.346 467.267 167.688 495.327L211.741 472.576C229.953 435.768 245.141 420.453 254.915 417.105C265.935 413.329 269.884 415.609 286.464 425.181C293.197 429.069 299.323 431.671 304.365 433.338C305.685 433.798 307.016 434.195 308.356 434.533C311.722 435.428 314.371 435.832 316.09 435.903L316.118 435.814C333.899 437.246 351.76 428.595 361.272 412.119C374.408 389.368 366.661 360.289 343.978 347.079L314.292 329.94C296.644 319.751 236.115 302.449 189.178 357.869Z" fill="url(#paint21_radial_29_395)"/>
<path d="M189.178 357.869C178.899 372.221 169.741 388.605 165.755 405.033C156.596 434.98 159.346 467.267 167.688 495.327L211.741 472.576C229.953 435.768 245.141 420.453 254.915 417.105C265.935 413.329 269.884 415.609 286.464 425.181C293.197 429.069 299.323 431.671 304.365 433.338C305.685 433.798 307.016 434.195 308.356 434.533C311.722 435.428 314.371 435.832 316.09 435.903L316.118 435.814C333.899 437.246 351.76 428.595 361.272 412.119C374.408 389.368 366.661 360.289 343.978 347.079L314.292 329.94C296.644 319.751 236.115 302.449 189.178 357.869Z" fill="url(#paint22_radial_29_395)"/>
<g filter="url(#filter9_f_29_395)">
<path d="M321.504 375.059L271.275 346.059C263.622 341.641 254.535 339.87 246.323 343.135C232.354 348.687 212.149 360.923 197.107 386.976" stroke="url(#paint23_linear_29_395)" stroke-width="14.8077" stroke-linecap="round"/>
</g>
<path fill-rule="evenodd" clip-rule="evenodd" d="M520.773 186.231C539.836 203.976 541.161 234.477 523.416 253.54L418.916 364.866L465.918 410.016L433.301 451.031C426.707 459.322 428.083 471.389 436.375 477.983L478.907 511.808C487.199 518.402 499.266 517.025 505.86 508.734L528.294 480.524C513.581 499.4 485.032 535.95 453.941 568.468C410.057 616.399 351.268 639.092 283.316 617.124C232.59 596.679 205.185 570.12 185.612 536.924C166.039 503.727 151.526 451.557 165.755 405.032C174.763 367.915 210.17 331.021 225.263 317.277L255.98 286.341C258.835 283.466 261.283 280.214 263.256 276.676L332.578 152.355C345.261 129.609 373.982 121.452 396.729 134.135C419.475 146.818 427.632 175.54 414.949 198.286L367.788 282.863L454.017 188.177C471.762 169.115 501.711 168.486 520.773 186.231Z" fill="url(#paint24_radial_29_395)"/>
<path fill-rule="evenodd" clip-rule="evenodd" d="M520.773 186.231C539.836 203.976 541.161 234.477 523.416 253.54L418.916 364.866L465.918 410.016L433.301 451.031C426.707 459.322 428.083 471.389 436.375 477.983L478.907 511.808C487.199 518.402 499.266 517.025 505.86 508.734L528.294 480.524C513.581 499.4 485.032 535.95 453.941 568.468C410.057 616.399 351.268 639.092 283.316 617.124C232.59 596.679 205.185 570.12 185.612 536.924C166.039 503.727 151.526 451.557 165.755 405.032C174.763 367.915 210.17 331.021 225.263 317.277L255.98 286.341C258.835 283.466 261.283 280.214 263.256 276.676L332.578 152.355C345.261 129.609 373.982 121.452 396.729 134.135C419.475 146.818 427.632 175.54 414.949 198.286L367.788 282.863L454.017 188.177C471.762 169.115 501.711 168.486 520.773 186.231Z" fill="url(#paint25_radial_29_395)"/>
<path fill-rule="evenodd" clip-rule="evenodd" d="M520.773 186.231C539.836 203.976 541.161 234.477 523.416 253.54L418.916 364.866L465.918 410.016L433.301 451.031C426.707 459.322 428.083 471.389 436.375 477.983L478.907 511.808C487.199 518.402 499.266 517.025 505.86 508.734L528.294 480.524C513.581 499.4 485.032 535.95 453.941 568.468C410.057 616.399 351.268 639.092 283.316 617.124C232.59 596.679 205.185 570.12 185.612 536.924C166.039 503.727 151.526 451.557 165.755 405.032C174.763 367.915 210.17 331.021 225.263 317.277L255.98 286.341C258.835 283.466 261.283 280.214 263.256 276.676L332.578 152.355C345.261 129.609 373.982 121.452 396.729 134.135C419.475 146.818 427.632 175.54 414.949 198.286L367.788 282.863L454.017 188.177C471.762 169.115 501.711 168.486 520.773 186.231Z" fill="url(#paint26_radial_29_395)"/>
</g>
<defs>
<filter id="filter0_d_29_395" x="-21" y="-1" width="792.086" height="792.086" filterUnits="userSpaceOnUse" color-interpolation-filters="sRGB">
<feFlood flood-opacity="0" result="BackgroundImageFix"/>
<feColorMatrix in="SourceAlpha" type="matrix" values="0 0 0 0 0 0 0 0 0 0 0 0 0 0 0 0 0 0 127 0" result="hardAlpha"/>
<feOffset dy="4"/>
<feGaussianBlur stdDeviation="2.5"/>
<feComposite in2="hardAlpha" operator="out"/>
<feColorMatrix type="matrix" values="0 0 0 0 0 0 0 0 0 0 0 0 0 0 0 0 0 0 0.25 0"/>
<feBlend mode="normal" in2="BackgroundImageFix" result="effect1_dropShadow_29_395"/>
<feBlend mode="normal" in="SourceGraphic" in2="effect1_dropShadow_29_395" result="shape"/>
</filter>
<filter id="filter1_i_29_395" x="160.043" y="122.603" width="379.596" height="502.94" filterUnits="userSpaceOnUse" color-interpolation-filters="sRGB">
<feFlood flood-opacity="0" result="BackgroundImageFix"/>
<feBlend mode="normal" in="SourceGraphic" in2="BackgroundImageFix" result="shape"/>
<feColorMatrix in="SourceAlpha" type="matrix" values="0 0 0 0 0 0 0 0 0 0 0 0 0 0 0 0 0 0 127 0" result="hardAlpha"/>
<feOffset dx="3.70192" dy="-5.55288"/>
<feGaussianBlur stdDeviation="5.55288"/>
<feComposite in2="hardAlpha" operator="arithmetic" k2="-1" k3="1"/>
<feColorMatrix type="matrix" values="0 0 0 0 0.737255 0 0 0 0 0.494118 0 0 0 0 0.588235 0 0 0 1 0"/>
<feBlend mode="normal" in2="shape" result="effect1_innerShadow_29_395"/>
</filter>
<filter id="filter2_f_29_395" x="366.458" y="349.695" width="178.489" height="175.835" filterUnits="userSpaceOnUse" color-interpolation-filters="sRGB">
<feFlood flood-opacity="0" result="BackgroundImageFix"/>
<feBlend mode="normal" in="SourceGraphic" in2="BackgroundImageFix" result="shape"/>
<feGaussianBlur stdDeviation="7.40385" result="effect1_foregroundBlur_29_395"/>
</filter>
<filter id="filter3_f_29_395" x="177.38" y="326.398" width="204.696" height="140.35" filterUnits="userSpaceOnUse" color-interpolation-filters="sRGB">
<feFlood flood-opacity="0" result="BackgroundImageFix"/>
<feBlend mode="normal" in="SourceGraphic" in2="BackgroundImageFix" result="shape"/>
<feGaussianBlur stdDeviation="7.40385" result="effect1_foregroundBlur_29_395"/>
</filter>
<filter id="filter4_f_29_395" x="438.459" y="380.205" width="79.3811" height="92.7691" filterUnits="userSpaceOnUse" color-interpolation-filters="sRGB">
<feFlood flood-opacity="0" result="BackgroundImageFix"/>
<feBlend mode="normal" in="SourceGraphic" in2="BackgroundImageFix" result="shape"/>
<feGaussianBlur stdDeviation="3.70192" result="effect1_foregroundBlur_29_395"/>
</filter>
<filter id="filter5_f_29_395" x="460.787" y="401.696" width="58.5684" height="66.3096" filterUnits="userSpaceOnUse" color-interpolation-filters="sRGB">
<feFlood flood-opacity="0" result="BackgroundImageFix"/>
<feBlend mode="normal" in="SourceGraphic" in2="BackgroundImageFix" result="shape"/>
<feGaussianBlur stdDeviation="2.77644" result="effect1_foregroundBlur_29_395"/>
</filter>
<filter id="filter6_f_29_395" x="386.032" y="323.803" width="98.0966" height="109.391" filterUnits="userSpaceOnUse" color-interpolation-filters="sRGB">
<feFlood flood-opacity="0" result="BackgroundImageFix"/>
<feBlend mode="normal" in="SourceGraphic" in2="BackgroundImageFix" result="shape"/>
<feGaussianBlur stdDeviation="3.70192" result="effect1_foregroundBlur_29_395"/>
</filter>
<filter id="filter7_f_29_395" x="368.993" y="188.996" width="129.148" height="134.748" filterUnits="userSpaceOnUse" color-interpolation-filters="sRGB">
<feFlood flood-opacity="0" result="BackgroundImageFix"/>
<feBlend mode="normal" in="SourceGraphic" in2="BackgroundImageFix" result="shape"/>
<feGaussianBlur stdDeviation="5.55288" result="effect1_foregroundBlur_29_395"/>
</filter>
<filter id="filter8_f_29_395" x="280.116" y="137.733" width="104.272" height="163.182" filterUnits="userSpaceOnUse" color-interpolation-filters="sRGB">
<feFlood flood-opacity="0" result="BackgroundImageFix"/>
<feBlend mode="normal" in="SourceGraphic" in2="BackgroundImageFix" result="shape"/>
<feGaussianBlur stdDeviation="5.55288" result="effect1_foregroundBlur_29_395"/>
</filter>
<filter id="filter9_f_29_395" x="174.894" y="319.239" width="168.822" height="89.9491" filterUnits="userSpaceOnUse" color-interpolation-filters="sRGB">
<feFlood flood-opacity="0" result="BackgroundImageFix"/>
<feBlend mode="normal" in="SourceGraphic" in2="BackgroundImageFix" result="shape"/>
<feGaussianBlur stdDeviation="7.40385" result="effect1_foregroundBlur_29_395"/>
</filter>
<radialGradient id="paint0_radial_29_395" cx="0" cy="0" r="1" gradientUnits="userSpaceOnUse" gradientTransform="translate(262.906 408.771) rotate(70.6013) scale(90.1293 80.7923)">
<stop stop-color="#EEB9B1"/>
<stop offset="1" stop-color="#EEB9B1" stop-opacity="0"/>
</radialGradient>
<linearGradient id="paint1_linear_29_395" x1="4.67297" y1="79.1798" x2="44.7101" y2="77.5316" gradientUnits="userSpaceOnUse">
<stop stop-color="#E6B194"/>
<stop offset="1" stop-color="#E6B194" stop-opacity="0"/>
</linearGradient>
<linearGradient id="paint2_linear_29_395" x1="2.0088" y1="78.9591" x2="14.4157" y2="78.4507" gradientUnits="userSpaceOnUse">
<stop stop-color="#ECB19B"/>
<stop offset="1" stop-color="#ECB19B" stop-opacity="0"/>
</linearGradient>
<radialGradient id="paint3_radial_29_395" cx="0" cy="0" r="1" gradientUnits="userSpaceOnUse" gradientTransform="translate(36.2704 134.045) rotate(-81.5063) scale(51.1065 69.1259)">
<stop stop-color="#C6888D"/>
<stop offset="1" stop-color="#C6888D" stop-opacity="0"/>
</radialGradient>
<radialGradient id="paint4_radial_29_395" cx="0" cy="0" r="1" gradientUnits="userSpaceOnUse" gradientTransform="translate(78.3791 -5.95423) rotate(112.53) scale(59.9368 70.9332)">
<stop stop-color="#D29D7F"/>
<stop offset="1" stop-color="#D29D7F" stop-opacity="0"/>
</radialGradient>
<linearGradient id="paint5_linear_29_395" x1="481.827" y1="295.99" x2="442.57" y2="258.032" gradientUnits="userSpaceOnUse">
<stop stop-color="#F0A985"/>
<stop offset="1" stop-color="#F0A985" stop-opacity="0"/>
</linearGradient>
<linearGradient id="paint6_linear_29_395" x1="488.428" y1="300.026" x2="473.991" y2="288.649" gradientUnits="userSpaceOnUse">
<stop stop-color="#F5B190"/>
<stop offset="1" stop-color="#F5B190" stop-opacity="0"/>
</linearGradient>
<linearGradient id="paint7_linear_29_395" x1="380.985" y1="259.983" x2="397.154" y2="276.283" gradientUnits="userSpaceOnUse">
<stop stop-color="#DC9B7F"/>
<stop offset="1" stop-color="#DC9B7F" stop-opacity="0"/>
</linearGradient>
<linearGradient id="paint8_linear_29_395" x1="367.369" y1="365.067" x2="410.582" y2="308.67" gradientUnits="userSpaceOnUse">
<stop offset="0.306897" stop-color="#EDB6A9"/>
<stop offset="1" stop-color="#EDB6A9" stop-opacity="0"/>
</linearGradient>
<radialGradient id="paint9_radial_29_395" cx="0" cy="0" r="1" gradientUnits="userSpaceOnUse" gradientTransform="translate(502.712 174.386) rotate(114.832) scale(49.6516 55.8067)">
<stop stop-color="#E8BEA3"/>
<stop offset="1" stop-color="#E8BEA3" stop-opacity="0"/>
</radialGradient>
<linearGradient id="paint10_linear_29_395" x1="409.27" y1="238.507" x2="359.25" y2="213.175" gradientUnits="userSpaceOnUse">
<stop stop-color="#D99676"/>
<stop offset="1" stop-color="#C58560" stop-opacity="0"/>
<stop offset="1" stop-color="#D99676" stop-opacity="0"/>
</linearGradient>
<linearGradient id="paint11_linear_29_395" x1="317.919" y1="282.524" x2="329.774" y2="258.489" gradientUnits="userSpaceOnUse">
<stop stop-color="#EDB6A9"/>
<stop offset="1" stop-color="#EDB6A9" stop-opacity="0"/>
</linearGradient>
<radialGradient id="paint12_radial_29_395" cx="0" cy="0" r="1" gradientUnits="userSpaceOnUse" gradientTransform="translate(368.067 117.582) rotate(98.3669) scale(69.4533 60.2702)">
<stop stop-color="#FFD6B9"/>
<stop offset="1" stop-color="#FFD6B9" stop-opacity="0"/>
</radialGradient>
<radialGradient id="paint13_radial_29_395" cx="0" cy="0" r="1" gradientUnits="userSpaceOnUse" gradientTransform="translate(236.926 316.662) rotate(17.5513) scale(198.875 157.176)">
<stop stop-color="#FFE7C7"/>
<stop offset="1" stop-color="#FFE7C7" stop-opacity="0"/>
</radialGradient>
<linearGradient id="paint14_linear_29_395" x1="4.78804" y1="92.5555" x2="38.8531" y2="91.8646" gradientUnits="userSpaceOnUse">
<stop stop-color="#D3977C"/>
<stop offset="1" stop-color="#D3977C" stop-opacity="0"/>
</linearGradient>
<linearGradient id="paint15_linear_29_395" x1="107.533" y1="95.7335" x2="53.1892" y2="93.69" gradientUnits="userSpaceOnUse">
<stop stop-color="#FFDABA"/>
<stop offset="1" stop-color="#FFDABA" stop-opacity="0"/>
</linearGradient>
<radialGradient id="paint16_radial_29_395" cx="0" cy="0" r="1" gradientUnits="userSpaceOnUse" gradientTransform="translate(37.1635 156.689) rotate(-82.5422) scale(59.5887 71.0077)">
<stop stop-color="#C6888D"/>
<stop offset="1" stop-color="#C6888D" stop-opacity="0"/>
</radialGradient>
<radialGradient id="paint17_radial_29_395" cx="0" cy="0" r="1" gradientUnits="userSpaceOnUse" gradientTransform="translate(33.9454 -9.11607) rotate(69.3043) scale(53.7901 57.7647)">
<stop stop-color="#DAAD94"/>
<stop offset="1" stop-color="#DAAD94" stop-opacity="0"/>
</radialGradient>
<linearGradient id="paint18_linear_29_395" x1="12.77" y1="53.3382" x2="13.195" y2="-15.2722" gradientUnits="userSpaceOnUse">
<stop stop-color="#F0C0B2"/>
<stop offset="1" stop-color="#F0C0B2" stop-opacity="0"/>
</linearGradient>
<linearGradient id="paint19_linear_29_395" x1="28.4792" y1="80.9765" x2="26.8241" y2="-52.9265" gradientUnits="userSpaceOnUse">
<stop stop-color="#FFE5CB"/>
<stop offset="1" stop-color="#FFE5CB" stop-opacity="0"/>
</linearGradient>
<radialGradient id="paint20_radial_29_395" cx="0" cy="0" r="1" gradientUnits="userSpaceOnUse" gradientTransform="translate(251.652 491.689) rotate(-79.352) scale(181.663 243.026)">
<stop offset="0.681941" stop-color="#FAC4A3" stop-opacity="0"/>
<stop offset="1" stop-color="#FAC4A3"/>
</radialGradient>
<radialGradient id="paint21_radial_29_395" cx="0" cy="0" r="1" gradientUnits="userSpaceOnUse" gradientTransform="translate(392.596 375.149) rotate(179.644) scale(63.5254 100.603)">
<stop stop-color="#EBA987"/>
<stop offset="1" stop-color="#EBA987" stop-opacity="0"/>
</radialGradient>
<radialGradient id="paint22_radial_29_395" cx="0" cy="0" r="1" gradientUnits="userSpaceOnUse" gradientTransform="translate(272.322 422.309) rotate(113.417) scale(53.4964 109.235)">
<stop stop-color="#C58285"/>
<stop offset="1" stop-color="#C58285" stop-opacity="0"/>
</radialGradient>
<linearGradient id="paint23_linear_29_395" x1="315.472" y1="371.576" x2="193.505" y2="368.492" gradientUnits="userSpaceOnUse">
<stop stop-color="#FFDEC6"/>
<stop offset="1" stop-color="#FFDEC6" stop-opacity="0"/>
</linearGradient>
<radialGradient id="paint24_radial_29_395" cx="0" cy="0" r="1" gradientUnits="userSpaceOnUse" gradientTransform="translate(392.651 482.315) rotate(-161.85) scale(255.942 459.863)">
<stop offset="0.670948" stop-color="#F1BCB0" stop-opacity="0"/>
<stop offset="1" stop-color="#F1BCB0"/>
</radialGradient>
<radialGradient id="paint25_radial_29_395" cx="0" cy="0" r="1" gradientUnits="userSpaceOnUse" gradientTransform="translate(456.741 426.785) rotate(170.403) scale(296.4 368.418)">
<stop offset="0.901698" stop-color="#E0A494" stop-opacity="0"/>
<stop offset="1" stop-color="#E0A494"/>
</radialGradient>
<radialGradient id="paint26_radial_29_395" cx="0" cy="0" r="1" gradientUnits="userSpaceOnUse" gradientTransform="translate(283.207 377.065) rotate(47.4372) scale(252.41 336.459)">
<stop offset="0.911282" stop-color="#E9AC9A" stop-opacity="0"/>
<stop offset="1" stop-color="#E9AC9A"/>
</radialGradient>
<clipPath id="clip0_29_395">
<rect width="572.527" height="572.527" fill="white" transform="matrix(-0.866025 -0.5 -0.5 0.866025 766.086 286.263)"/>
</clipPath>
</defs>
</svg>
