<svg width="50" height="50" viewBox="0 0 50 50" fill="none" xmlns="http://www.w3.org/2000/svg">
<g clip-path="url(#clip0_16_64)">
<path d="M2.08325 25C2.08325 8.33333 8.33325 2.08333 24.9999 2.08333C41.6666 2.08333 47.9166 8.33333 47.9166 25C47.9166 41.6667 41.6666 47.9167 24.9999 47.9167C8.33325 47.9167 2.08325 41.6667 2.08325 25Z" fill="#00A3F8"/>
<path d="M39.2499 16.25C38.18 16.7103 37.0511 17.0189 35.8958 17.1667C37.1055 16.4374 38.0145 15.2994 38.4583 13.9583C37.3069 14.628 36.0545 15.1065 34.7499 15.375C34.2262 14.8033 33.5946 14.341 32.8914 14.0146C32.1882 13.6882 31.4273 13.5042 30.6527 13.4732C29.878 13.4422 29.1049 13.5648 28.3779 13.834C27.6508 14.1032 26.9843 14.5137 26.4166 15.0417C25.6502 15.7333 25.0849 16.6192 24.7805 17.6057C24.4762 18.5922 24.444 19.6426 24.6874 20.6458C22.383 20.5183 20.1302 19.9137 18.0718 18.8701C16.0133 17.8265 14.194 16.3667 12.7291 14.5833C11.9824 15.8658 11.7585 17.3865 12.1038 18.8297C12.449 20.273 13.337 21.5277 14.5833 22.3333C13.6545 22.3133 12.7453 22.0628 11.9374 21.6042C11.929 22.962 12.398 24.2797 13.2624 25.3269C14.1269 26.3741 15.3317 27.0843 16.6666 27.3333C16.1593 27.4836 15.6332 27.5608 15.1041 27.5625C14.7437 27.5939 14.3812 27.5939 14.0208 27.5625C14.4018 28.7139 15.1323 29.718 16.1106 30.4349C17.0889 31.1518 18.2663 31.546 19.4791 31.5625C17.4096 33.1676 14.8689 34.0462 12.2499 34.0625C11.7916 34.0625 11.3124 34.0625 10.8333 34.0625C13.5106 35.7656 16.6185 36.6691 19.7916 36.6667C24.1496 36.7223 28.3517 35.0471 31.4762 32.0086C34.6007 28.97 36.3924 24.8162 36.4583 20.4583V19.4167C37.5711 18.537 38.5167 17.4644 39.2499 16.25Z" fill="white"/>
</g>
<defs>
<clipPath id="clip0_16_64">
<rect width="50" height="50" fill="white"/>
</clipPath>
</defs>
</svg>
